<?xml version="1.0" standalone="no"?>
<!DOCTYPE svg PUBLIC "-//W3C//DTD SVG 20010904//EN"
 "http://www.w3.org/TR/2001/REC-SVG-20010904/DTD/svg10.dtd">
<svg version="1.0" xmlns="http://www.w3.org/2000/svg"
 width="500.000000pt" height="500.000000pt" viewBox="0 0 500.000000 500.000000"
 preserveAspectRatio="xMidYMid meet">

<g transform="translate(0.000000,500.000000) scale(0.100000,-0.100000)"
fill="#000000" stroke="none">
<path d="M3880 2540 l0 -520 120 0 120 0 2 163 3 162 118 -162 119 -163 149 0
150 0 -153 181 c-84 99 -158 188 -165 197 -10 15 12 45 147 207 88 105 159
193 159 198 1 4 -64 7 -143 7 l-144 0 -121 -162 -121 -162 0 287 0 287 -120 0
-120 0 0 -520z"/>
<path d="M1050 2515 l0 -495 120 0 120 0 0 205 0 205 190 0 190 0 0 -205 0
-205 120 0 120 0 0 495 0 495 -120 0 -120 0 0 -195 0 -195 -190 0 -190 0 0
195 0 195 -120 0 -120 0 0 -495z"/>
<path d="M2335 2807 c-160 -41 -271 -165 -294 -328 -38 -280 148 -483 429
-467 155 9 279 87 341 214 44 89 52 219 20 320 -51 165 -180 260 -366 269 -47
3 -101 -1 -130 -8z m193 -224 c110 -81 105 -278 -8 -342 -77 -43 -169 -18
-213 57 -38 66 -32 198 13 254 46 59 150 74 208 31z"/>
<path d="M3235 2806 c-83 -20 -141 -54 -199 -116 -115 -125 -137 -311 -56
-476 37 -75 91 -126 179 -168 62 -29 73 -31 176 -31 92 0 120 4 168 24 93 37
155 94 202 185 40 78 40 80 40 190 0 104 -2 115 -32 178 -83 175 -278 263
-478 214z m193 -223 c61 -46 85 -119 70 -218 -23 -153 -199 -198 -291 -73 -25
33 -35 149 -18 201 16 48 48 86 85 103 41 19 120 12 154 -13z"/>
</g>
</svg>
